<svg width="71" height="66" viewBox="0 0 71 66" fill="none" xmlns="http://www.w3.org/2000/svg">
<path d="M0.248268 58.625C0.985664 56.599 2.9535 55.736 4.96633 56.4686C6.97915 57.2012 7.93187 59.1272 7.19448 61.1532C6.45708 63.1792 4.48924 64.0422 2.47642 63.3096C0.463598 62.577 -0.489127 60.6509 0.248268 58.625ZM1.85326 59.2091C1.42232 60.3932 1.89326 61.4734 2.99834 61.8756C4.10342 62.2778 5.15854 61.753 5.58948 60.569C6.02043 59.385 5.54948 58.3048 4.4444 57.9026C3.33932 57.5003 2.28421 58.0251 1.85326 59.2091Z" fill="black"/>
<path d="M14.762 58.2617L14.5692 59.832L13.9439 59.7552C12.7211 59.605 11.8766 60.1643 11.7128 61.4983L11.3033 64.8332L9.60806 64.6251L10.4492 57.7745L12.0472 57.9707L12.0216 58.9832C12.397 58.3381 13.1064 57.9597 14.0236 58.0723C14.2598 58.1013 14.4926 58.1581 14.762 58.2617Z" fill="black"/>
<path d="M23.1226 61.9884C22.8616 59.8624 24.0808 58.1893 26.1095 57.9402C27.9854 57.7099 29.3918 58.5951 29.7755 60.2265L28.0802 60.4347C27.7901 59.6804 27.1709 59.3474 26.365 59.4463C25.2811 59.5794 24.6592 60.488 24.8179 61.7803C24.9766 63.0726 25.7425 63.7966 26.8264 63.6635C27.674 63.5595 28.2203 63.0692 28.3088 62.2967L30.018 62.0868C30.0058 63.7104 28.8066 64.972 27.014 65.1921C24.9297 65.448 23.3905 64.17 23.1226 61.9884Z" fill="black"/>
<path d="M35.5909 63.2666L33.9892 63.8181L30.5981 53.9696L32.1998 53.4181L35.5909 63.2666Z" fill="black"/>
<path d="M37.2669 53.5094C36.7682 53.821 36.1316 53.674 35.8274 53.1872C35.5232 52.7004 35.6776 52.0757 36.1763 51.7641C36.6512 51.4673 37.2804 51.6024 37.5846 52.0892C37.8887 52.576 37.7418 53.2126 37.2669 53.5094ZM40.942 61.0024L37.2771 55.1373L38.7256 54.2322L42.3905 60.0973L40.942 61.0024Z" fill="black"/>
<path d="M44.5957 55.1485C43.1077 53.6077 43.0745 51.5378 44.5449 50.1179C45.9044 48.805 47.5603 48.6656 48.8485 49.7376L47.6199 50.9241C46.9343 50.4963 46.2394 50.603 45.6553 51.167C44.8698 51.9256 44.9199 53.0255 45.8243 53.9621C46.7288 54.8986 47.7762 55.0159 48.5617 54.2574C49.176 53.6641 49.3173 52.9438 48.9231 52.2736L50.1618 51.0774C51.1291 52.3814 50.9306 54.1106 49.6315 55.3651C48.1209 56.8239 46.1225 56.7296 44.5957 55.1485Z" fill="black"/>
<path d="M55.3459 48.1542L54.4482 49.5908L45.6149 44.0712L46.5126 42.6346L51.9384 46.025L50.9052 42.2098L52.0403 40.3932L52.9726 44.0794L57.8757 44.1056L56.8371 45.7678L53.4105 45.7563L53.7668 47.1675L55.3459 48.1542Z" fill="black"/>
<path d="M67.7465 34.2324L58.176 30.937L58.691 29.4412L59.7203 29.6771C59.1025 29.0202 58.9619 28.0094 59.3038 27.0166C59.9373 25.1766 61.6936 24.4191 63.7454 25.1256C65.7839 25.8275 66.8836 27.4499 66.2136 29.3958C65.8763 30.3754 65.2008 31.0904 64.3976 31.2728L68.3026 32.6174L67.7465 34.2324ZM62.0062 30.4346C63.1843 30.8403 64.2425 30.3903 64.6254 29.2783C65.0173 28.1399 64.4291 27.1822 63.2642 26.7811C62.0993 26.38 61.0329 26.768 60.6409 27.9064C60.2581 29.0183 60.8281 30.029 62.0062 30.4346Z" fill="black"/>
<path d="M68.4508 20.8431L68.2443 22.5244L57.906 21.255L58.1124 19.5737L68.4508 20.8431Z" fill="black"/>
<path d="M68.9309 13.1169C69.11 14.576 68.3716 15.5694 67.0793 15.7281C65.8148 15.8833 64.9101 15.0635 64.5854 13.453L64.1801 11.4152L64.0272 11.434C63.0962 11.5483 62.7893 12.1502 62.8951 13.0117C63.0179 14.0122 63.503 14.5169 64.2256 14.4281L64.4031 15.8733C62.9162 16.0559 61.7934 14.9525 61.5648 13.0905C61.3378 11.2423 62.1984 9.98004 64.1021 9.7463L68.2708 9.23445L68.4534 10.7213L67.4543 10.9709C68.1988 11.1757 68.7995 12.047 68.9309 13.1169ZM67.5842 12.7181C67.4563 11.6759 66.7491 11.0857 65.693 11.2154L65.3317 11.2597L65.6186 12.6773C65.8456 13.7215 66.2424 14.0818 66.7983 14.0135C67.4236 13.9368 67.6781 13.4823 67.5842 12.7181Z" fill="black"/>
<path d="M70.9936 3.15539L69.6517 3.64379L69.3022 2.68343C69.0723 2.05195 68.784 1.70995 67.9204 1.7114L67.3666 1.70439L61.5443 6.78834L60.9266 5.09126L65.0545 1.6967L59.6769 1.65762L59.0735 0L68.1783 0.291556C69.5658 0.337795 70.3147 0.839937 70.7026 1.90555C70.8654 2.35284 70.9564 2.76667 70.9936 3.15539Z" fill="black"/>
</svg>
