<svg width="33" height="36" viewBox="0 0 33 36" fill="none" xmlns="http://www.w3.org/2000/svg">
<path d="M4.12354 35.8186L4.59836 34.2656C5.17814 34.4282 5.67061 34.1103 5.89983 33.3605C6.13314 32.5974 5.9521 32.0882 5.47012 31.9409C5.13542 31.8385 4.84122 31.9389 4.52723 32.4871L3.88178 33.5926C3.24972 34.7023 2.51141 35.1061 1.45374 34.7828C0.155073 34.3857 -0.285803 33.0505 0.180822 31.5242C0.635168 30.0381 1.79901 29.296 3.08837 29.6755L2.61356 31.2286C2.04716 31.07 1.57107 31.3344 1.37869 31.9636C1.18221 32.6063 1.36215 33.0712 1.85751 33.2226C2.23238 33.3372 2.56342 33.1164 2.86922 32.595L3.51467 31.4894C4.10878 30.456 4.78945 30.0492 5.80696 30.3603C7.14579 30.7696 7.62794 32.1614 7.12856 33.7947C6.6251 35.4415 5.42221 36.2156 4.12354 35.8186Z" fill="black"/>
<path d="M4.68788 27.899C2.81444 26.8606 2.17754 24.8908 3.16849 23.1031C4.08478 21.4501 5.62756 20.8326 7.17292 21.4811L6.34486 22.975C5.56414 22.7663 4.93076 23.0715 4.53709 23.7817C4.00768 24.7368 4.37718 25.774 5.51593 26.4052C6.65469 27.0364 7.69067 26.8423 8.22008 25.8872C8.63411 25.1403 8.55862 24.4102 7.98565 23.8845L8.82049 22.3784C10.1268 23.3426 10.4426 25.0543 9.567 26.6338C8.5489 28.4705 6.61029 28.9646 4.68788 27.899Z" fill="black"/>
<path d="M10.6561 13.7733L11.8131 14.8522L11.3835 15.3129C10.5432 16.214 10.4993 17.2259 11.4823 18.1425L13.9396 20.434L12.7748 21.6831L7.72695 16.976L8.82497 15.7985L9.62901 16.4143C9.32781 15.7314 9.43868 14.9351 10.0688 14.2593C10.2312 14.0853 10.414 13.9303 10.6561 13.7733Z" fill="black"/>
<path d="M15.2982 14.4394C14.0615 12.6733 14.4833 10.5664 16.2379 9.33775C17.9926 8.10915 20.1167 8.43344 21.3533 10.1995C22.59 11.9656 22.1682 14.0726 20.4136 15.3012C18.6589 16.5298 16.5348 16.2055 15.2982 14.4394ZM16.6973 13.4597C17.42 14.4919 18.575 14.7257 19.5383 14.0512C20.5016 13.3766 20.6769 12.2113 19.9542 11.1792C19.2315 10.1471 18.0765 9.91325 17.1132 10.5878C16.1499 11.2623 15.9746 12.4276 16.6973 13.4597Z" fill="black"/>
<path d="M26.8971 11.6372L25.3265 12.2718L21.4246 2.61426L22.9952 1.97968L26.8971 11.6372Z" fill="black"/>
<path d="M32.4019 10.3146L30.7244 10.5504L29.2747 0.235763L30.9523 3.63293e-06L32.4019 10.3146Z" fill="black"/>
</svg>
