<svg width="57" height="19" viewBox="0 0 57 19" fill="none" overflow="visible" xmlns="http://www.w3.org/2000/svg">
<path class="year-1" d="M12.384 17.856L0.216 17.88V15.576L5.952 10.728C8.328 8.712 9.12 7.56 9.12 5.88C9.12 3.888 8.04 2.76 6.192 2.76C4.272 2.76 3.072 4.104 3.048 6.36H0C0.024 2.52 2.472 0.0240011 6.192 0.0240011C9.936 0.0240011 12.264 2.16 12.264 5.712C12.264 8.16 10.92 10.008 8.256 12.288L5.088 15H12.384V17.856Z" fill="#272727"/>
<path class="year-2" d="M14.2768 9.144C14.2768 3.696 17.2048 0 21.6928 0C26.1808 0 29.1328 3.696 29.1328 9.144C29.1328 14.568 26.3488 18.192 21.6928 18.192C17.0368 18.192 14.2768 14.568 14.2768 9.144ZM17.3008 9.144C17.3008 13.2 18.9328 15.48 21.6928 15.48C24.4768 15.48 26.1088 13.2 26.1088 9.144C26.1088 4.992 24.4768 2.712 21.6928 2.712C18.9328 2.712 17.3008 4.992 17.3008 9.144Z" fill="#272727"/>
<path class="year-3" d="M43.4387 17.856L31.2707 17.88V15.576L37.0067 10.728C39.3827 8.712 40.1747 7.56 40.1747 5.88C40.1747 3.888 39.0947 2.76 37.2467 2.76C35.3267 2.76 34.1267 4.104 34.1027 6.36H31.0547C31.0787 2.52 33.5267 0.0240011 37.2467 0.0240011C40.9907 0.0240011 43.3187 2.16 43.3187 5.712C43.3187 8.16 41.9747 10.008 39.3107 12.288L36.1427 15H43.4387V17.856Z" fill="#272727"/>
<path class="year-4" d="M44.3972 0.336001H56.9972V3.168L50.6372 17.88H47.4452L53.9252 3.168H44.3972V0.336001Z" fill="#272727"/>
<path class="month-1" d="M14.27 9.144C14.27 3.696 17.198 0 21.686 0C26.174 0 29.126 3.696 29.126 9.144C29.126 14.568 26.342 18.192 21.686 18.192C17.03 18.192 14.27 14.568 14.27 9.144ZM17.294 9.144C17.294 13.2 18.926 15.48 21.686 15.48C24.47 15.48 26.102 13.2 26.102 9.144C26.102 4.992 24.47 2.712 21.686 2.712C18.926 2.712 17.294 4.992 17.294 9.144Z" fill="#272727"/>
<path class="month-2" d="M43.4319 17.856L31.2639 17.88V15.576L36.9999 10.728C39.3759 8.712 40.1679 7.56 40.1679 5.88C40.1679 3.888 39.0879 2.76 37.2399 2.76C35.3199 2.76 34.1199 4.104 34.0959 6.36H31.0479C31.0719 2.52 33.5199 0.0240011 37.2399 0.0240011C40.9839 0.0240011 43.3119 2.16 43.3119 5.712C43.3119 8.16 41.9679 10.008 39.3039 12.288L36.1359 15H43.4319V17.856Z" fill="#272727"/>
<path class="day-1" d="M43.444 17.852L31.276 17.876V15.572L37.012 10.724C39.388 8.70802 40.18 7.55602 40.18 5.87602C40.18 3.88402 39.1 2.75602 37.252 2.75602C35.332 2.75602 34.132 4.10002 34.108 6.35602H31.06C31.084 2.51602 33.532 0.0200195 37.252 0.0200195C40.996 0.0200195 43.324 2.15602 43.324 5.70802C43.324 8.15602 41.98 10.004 39.316 12.284L36.148 14.996H43.444V17.852Z" fill="#272727"/>
<path class="day-2" d="M44.4025 0.33202H57.0025V3.16402L50.6425 17.876H47.4505L53.9305 3.16402H44.4025V0.33202Z" fill="#272727"/>
</svg>
